<?xml version="1.0" standalone="no"?>
<!DOCTYPE svg PUBLIC "-//W3C//DTD SVG 20010904//EN"
 "http://www.w3.org/TR/2001/REC-SVG-20010904/DTD/svg10.dtd">
<svg version="1.0" xmlns="http://www.w3.org/2000/svg"
 width="512.000000pt" height="512.000000pt" viewBox="0 0 512.000000 512.000000"
 preserveAspectRatio="xMidYMid meet">

<g transform="translate(0.000000,512.000000) scale(0.100000,-0.100000)"
fill="#000000" stroke="none">
<path d="M3375 3853 c-278 -25 -534 -93 -648 -172 -39 -27 -92 -80 -126 -125
-10 -14 -21 -130 -42 -448 -22 -338 -31 -435 -43 -453 -14 -21 -16 -83 -16
-477 0 -430 1 -455 19 -485 11 -17 34 -42 50 -54 30 -22 31 -25 31 -105 0 -96
9 -127 53 -172 41 -42 80 -52 207 -52 187 1 248 55 250 223 l0 67 470 0 470 0
0 -78 c0 -101 26 -155 90 -189 38 -20 57 -23 165 -23 108 0 127 3 165 23 66
35 90 87 90 197 0 80 2 88 23 99 13 7 36 31 50 54 l27 41 0 448 c0 421 -1 450
-19 490 -17 36 -23 100 -42 403 -12 198 -22 396 -21 440 2 112 -26 148 -163
215 -188 91 -485 141 -820 138 -99 -1 -198 -3 -220 -5z m557 -210 c25 -22 23
-75 -3 -99 -20 -18 -43 -19 -337 -22 -342 -3 -367 0 -379 47 -9 33 -5 51 14
74 15 16 45 17 351 17 298 0 337 -2 354 -17z m418 -296 c0 -42 28 -474 35
-544 l5 -53 -810 0 c-445 0 -810 3 -810 8 0 4 9 142 20 307 11 165 20 303 20
308 0 4 347 7 770 7 l770 0 0 -33z m-1429 -1278 c58 -41 74 -109 39 -166 -26
-44 -63 -66 -110 -66 -93 0 -157 101 -115 182 35 69 126 93 186 50z m1460 0
c58 -41 74 -109 39 -166 -26 -43 -63 -66 -109 -66 -127 0 -176 152 -75 232 36
28 106 28 145 0z"/>
<path d="M1043 3033 c-12 -2 -34 -18 -48 -34 -21 -26 -25 -40 -25 -98 0 -44 5
-74 16 -89 l15 -22 -89 0 c-82 0 -92 -2 -129 -29 l-40 -29 -60 -238 -59 -238
-34 -7 c-68 -14 -70 -24 -70 -280 l0 -229 -25 -12 c-14 -6 -28 -23 -32 -36 -9
-37 10 -61 60 -76 15 -5 17 -20 17 -125 0 -112 2 -122 24 -148 23 -27 28 -28
120 -28 86 0 98 2 118 23 21 20 23 34 28 150 l5 127 523 3 522 2 0 -115 c0
-136 11 -167 66 -185 20 -7 67 -10 105 -8 59 3 73 8 97 31 26 26 27 32 30 147
l4 119 29 10 c51 18 58 78 13 108 l-24 15 0 220 c0 148 -4 226 -12 241 -16 31
-39 46 -69 47 -26 0 -27 4 -78 208 -29 114 -56 223 -61 242 -7 23 -23 44 -49
63 -35 24 -48 27 -125 27 -78 0 -103 8 -76 25 6 3 10 41 10 84 0 70 -3 81 -25
103 -14 14 -39 28 -56 32 -35 7 -580 6 -616 -1z m844 -563 c23 -91 45 -177 48
-192 l7 -28 -587 0 c-540 0 -587 1 -581 16 4 9 22 80 42 158 19 78 39 158 45
179 l10 37 487 -2 487 -3 42 -165z m-1056 -385 c36 -19 69 -70 69 -108 0 -83
-89 -145 -163 -113 -78 32 -103 124 -50 186 42 51 90 62 144 35z m1167 -5 c69
-42 79 -131 21 -189 -38 -39 -86 -48 -132 -26 -94 44 -97 168 -6 217 43 23 76
23 117 -2z"/>
</g>
</svg>
