<?xml version="1.0" standalone="no"?>
<!DOCTYPE svg PUBLIC "-//W3C//DTD SVG 20010904//EN"
 "http://www.w3.org/TR/2001/REC-SVG-20010904/DTD/svg10.dtd">
<svg version="1.0" xmlns="http://www.w3.org/2000/svg"
 width="2160.000000pt" height="2160.000000pt" viewBox="0 0 2160.000000 2160.000000"
 preserveAspectRatio="xMidYMid meet">

<g transform="translate(0.000000,2160.000000) scale(0.100000,-0.100000)"
fill="#000000" stroke="none">
<path d="M12460 17683 c-499 -37 -996 -151 -1475 -338 -164 -63 -551 -255
-714 -354 -645 -390 -1175 -900 -1598 -1536 -97 -146 -133 -207 -233 -395
-321 -604 -510 -1258 -560 -1935 -21 -293 -10 -723 26 -995 74 -563 213 -1022
463 -1535 115 -235 213 -405 348 -604 l85 -124 -104 -104 c-57 -58 -210 -208
-341 -336 l-238 -231 -197 197 -197 196 -1707 -1702 c-1159 -1156 -1725 -1728
-1765 -1782 -110 -149 -174 -269 -226 -426 -190 -567 -10 -1145 470 -1507 230
-173 498 -262 788 -262 321 0 600 97 880 308 33 25 828 813 1768 1751 l1707
1706 -190 190 c-104 105 -190 195 -190 200 0 6 150 160 334 344 l334 334 143
-95 c596 -395 1239 -650 1919 -762 289 -48 395 -57 727 -63 405 -7 638 11 998
76 694 125 1374 414 1975 840 654 463 1216 1125 1566 1846 342 706 504 1400
504 2170 0 781 -178 1531 -527 2220 -436 862 -1132 1592 -1975 2073 -614 351
-1284 559 -2018 627 -140 14 -643 18 -780 8z m820 -513 c928 -103 1781 -478
2470 -1086 968 -855 1510 -2049 1510 -3329 0 -1048 -359 -2035 -1036 -2845
-169 -203 -457 -481 -679 -657 -418 -330 -1002 -626 -1515 -768 -1060 -292
-2169 -198 -3130 266 -349 169 -691 390 -960 619 -182 155 -478 462 -621 645
-512 651 -822 1407 -926 2255 -25 206 -25 764 0 970 109 891 435 1660 991
2337 201 244 574 592 841 785 700 504 1545 795 2400 826 208 8 491 0 655 -18z
m-3752 -8115 c1 -5 -139 -152 -313 -325 l-315 -315 -213 213 -212 213 320 313
320 314 205 -201 c113 -111 206 -206 208 -212z m-970 -1000 l382 -380 -307
-307 c-169 -170 -312 -308 -318 -308 -5 0 -281 271 -613 603 l-603 602 313
307 313 307 225 -222 c124 -122 397 -393 608 -602z m-1206 -752 c329 -329 598
-601 598 -604 0 -14 -2046 -2047 -2106 -2093 -430 -322 -989 -232 -1267 205
-83 130 -119 261 -120 429 0 187 48 343 159 513 36 55 288 314 1083 1110 570
570 1040 1037 1046 1037 5 0 279 -269 607 -597z"/>
<path d="M12485 16379 c-527 -52 -1016 -206 -1460 -457 -130 -73 -382 -244
-500 -338 -60 -49 -177 -154 -258 -234 -550 -538 -913 -1227 -1042 -1975 -122
-707 -32 -1430 259 -2091 180 -408 459 -808 783 -1125 468 -457 1048 -780
1676 -933 1106 -271 2265 -15 3153 698 472 378 835 860 1079 1431 300 703 362
1539 170 2290 -224 875 -755 1629 -1495 2123 -492 328 -1003 521 -1581 598
-145 19 -642 28 -784 13z m595 -499 c759 -66 1471 -406 1994 -951 234 -244
393 -468 544 -767 295 -582 400 -1230 302 -1872 -49 -322 -139 -612 -280 -899
-167 -339 -342 -584 -609 -851 -371 -371 -778 -618 -1284 -779 -595 -190
-1287 -187 -1892 9 -485 157 -883 400 -1245 759 -176 175 -291 311 -397 469
-294 440 -453 870 -525 1422 -16 123 -16 547 0 670 45 343 111 596 228 873
177 417 397 736 734 1060 503 485 1182 794 1883 856 134 12 414 12 547 1z"/>
<path d="M12299 14980 c-107 -19 -194 -83 -241 -178 l-23 -47 -5 -635 -5 -635
-635 -5 -635 -5 -49 -24 c-96 -47 -155 -127 -175 -236 -15 -80 -15 -950 0
-1030 19 -105 79 -188 171 -237 l43 -23 640 -5 640 -5 5 -635 5 -635 25 -50
c33 -68 99 -129 166 -154 53 -20 74 -21 584 -21 510 0 531 1 584 21 67 25 133
86 166 154 l25 50 5 635 5 635 640 5 640 5 43 23 c55 29 115 89 144 144 l23
43 0 565 0 565 -23 43 c-30 56 -91 115 -150 144 l-47 23 -635 5 -635 5 -5 635
-5 635 -23 48 c-34 68 -102 131 -170 159 -57 23 -60 23 -552 24 -272 1 -516
-1 -541 -6z"/>
</g>
</svg>
