<?xml version="1.0" standalone="no"?>
<!DOCTYPE svg PUBLIC "-//W3C//DTD SVG 20010904//EN"
 "http://www.w3.org/TR/2001/REC-SVG-20010904/DTD/svg10.dtd">
<svg version="1.0" xmlns="http://www.w3.org/2000/svg"
 width="512.000000pt" height="512.000000pt" viewBox="0 0 512.000000 512.000000"
 preserveAspectRatio="xMidYMid meet">

<g transform="translate(0.000000,512.000000) scale(0.100000,-0.100000)"
fill="#000000" stroke="none">
<path d="M2325 4781 c-170 -31 -267 -63 -410 -134 -194 -95 -397 -268 -522
-442 -80 -111 -184 -320 -218 -440 -71 -244 -74 -565 -9 -795 58 -203 138
-350 779 -1445 177 -302 353 -604 391 -670 37 -66 82 -134 99 -152 57 -57 157
-66 227 -20 22 15 58 65 106 147 40 69 218 370 394 670 487 829 677 1164 731
1295 125 301 145 638 56 955 -37 132 -137 337 -222 455 -80 112 -247 274 -359
348 -91 61 -255 142 -354 175 -197 67 -493 89 -689 53z m412 -677 c80 -20 186
-72 260 -127 180 -134 295 -383 280 -607 -8 -112 -28 -186 -79 -290 -33 -68
-59 -102 -132 -176 -79 -79 -104 -98 -186 -137 -218 -104 -422 -104 -640 0
-82 39 -107 58 -185 137 -63 63 -102 112 -127 161 -110 213 -115 436 -14 650
147 311 493 474 823 389z"/>
</g>
</svg>
