<?xml version="1.0" standalone="no"?>
<!DOCTYPE svg PUBLIC "-//W3C//DTD SVG 20010904//EN"
 "http://www.w3.org/TR/2001/REC-SVG-20010904/DTD/svg10.dtd">
<svg version="1.0" xmlns="http://www.w3.org/2000/svg"
 width="1560.000000pt" height="512.000000pt" viewBox="0 0 1560.000000 512.000000"
 preserveAspectRatio="xMidYMid meet">

<g transform="translate(0.000000,512.000000) scale(0.100000,-0.100000)"
fill="#000000" stroke="none">
<path d="M5816 3990 c-44 -5 -84 -14 -90 -20 -11 -11 -16 -353 -6 -364 3 -3
56 -10 118 -17 127 -14 349 1 364 24 9 14 11 311 2 343 -4 16 -16 23 -42 27
-74 12 -269 15 -346 7z"/>
<path d="M5110 3675 c0 -173 -2 -315 -5 -315 -2 0 -37 11 -77 24 -102 35 -233
50 -354 42 -370 -24 -534 -201 -575 -625 -13 -133 -6 -351 15 -456 29 -145 86
-256 168 -332 91 -83 216 -123 385 -123 203 0 308 46 391 170 24 36 47 66 52
68 8 3 20 -70 20 -127 0 -20 3 -46 6 -58 l6 -23 229 0 229 0 0 1035 0 1035
-245 0 -245 0 0 -315z m-52 -689 l52 -17 0 -211 c0 -262 -10 -309 -81 -380
-59 -59 -131 -83 -228 -76 -121 9 -183 52 -211 148 -35 117 -30 358 9 444 23
51 46 72 107 97 42 17 67 19 174 15 76 -2 145 -10 178 -20z"/>
<path d="M200 2890 l0 -970 231 0 231 0 -6 763 c-2 419 -8 781 -11 805 -4 24
-3 42 2 42 5 0 37 -107 72 -237 77 -294 254 -926 316 -1127 25 -82 45 -151 45
-153 0 -1 119 -3 263 -3 l264 0 126 438 c69 240 165 582 214 760 81 297 115
392 98 275 -3 -27 -9 -389 -11 -805 l-5 -758 225 0 226 0 0 970 0 970 -402 0
-403 0 -64 -243 c-134 -507 -219 -852 -236 -958 -10 -60 -21 -109 -25 -109 -4
0 -10 24 -14 53 -13 97 -57 280 -176 732 -66 248 -123 466 -128 485 l-8 35
-412 3 -412 2 0 -970z"/>
<path d="M3141 3419 c-181 -21 -309 -77 -412 -179 -73 -73 -113 -145 -151
-275 -21 -73 -23 -100 -23 -300 0 -178 4 -235 18 -298 42 -179 146 -314 298
-387 127 -60 230 -80 454 -87 245 -7 430 10 608 58 l37 10 0 175 0 176 -37 -6
c-170 -27 -530 -35 -668 -16 -147 21 -203 53 -241 134 -44 94 -92 85 488 88
l512 3 8 35 c5 19 10 109 11 200 1 128 -3 180 -16 235 -54 213 -176 339 -392
404 -127 38 -323 50 -494 30z m336 -365 c89 -24 130 -75 148 -181 l7 -43 -321
0 -321 0 0 28 c0 82 50 158 123 187 83 34 258 38 364 9z"/>
<path d="M5720 2665 l0 -745 240 0 240 0 0 745 0 745 -240 0 -240 0 0 -745z"/>
</g>
</svg>
